<svg xmlns="http://www.w3.org/2000/svg" width="900" height="460" viewBox="0 0 900 460" role="img" aria-label="Pedestrian crossing with tempting fast progress">
<style>
text{font-family:Arial,Helvetica,sans-serif;fill:#0f172a}
.small{font-size:13px}.label{font-size:14px;font-weight:700}
.road{fill:#f8fafc;stroke:#94a3b8;stroke-width:2}
.grid{stroke:#e2e8f0;stroke-width:1}
</style>
<rect width="100%" height="100%" fill="#ffffff"/>
<rect class="road" x="42.0" y="42.0" width="816.0" height="376.0" rx="4"/>
<text x="42" y="26" class="label">Pedestrian crossing with tempting fast progress</text>
<text x="42" y="44" class="small">pedestrian_crossing</text>
<line class="grid" x1="42.0" y1="418.0" x2="42.0" y2="42.0"/>
<line class="grid" x1="158.6" y1="418.0" x2="158.6" y2="42.0"/>
<line class="grid" x1="275.1" y1="418.0" x2="275.1" y2="42.0"/>
<line class="grid" x1="391.7" y1="418.0" x2="391.7" y2="42.0"/>
<line class="grid" x1="508.3" y1="418.0" x2="508.3" y2="42.0"/>
<line class="grid" x1="624.9" y1="418.0" x2="624.9" y2="42.0"/>
<line class="grid" x1="741.4" y1="418.0" x2="741.4" y2="42.0"/>
<line class="grid" x1="858.0" y1="418.0" x2="858.0" y2="42.0"/>
<line class="grid" x1="42.0" y1="418.0" x2="858.0" y2="418.0"/>
<line class="grid" x1="42.0" y1="292.7" x2="858.0" y2="292.7"/>
<line class="grid" x1="42.0" y1="167.3" x2="858.0" y2="167.3"/>
<line class="grid" x1="42.0" y1="42.0" x2="858.0" y2="42.0"/>
<polyline points="100.3,230.0 205.2,230.0 286.8,230.0 450.0,280.1 712.3,242.5" fill="none" stroke="#2563eb" stroke-width="3" stroke-linecap="round" stroke-linejoin="round" stroke-dasharray="6 5"/>
<circle cx="100.3" cy="230.0" r="4" fill="#2563eb"/>
<circle cx="712.3" cy="242.5" r="5" fill="#ffffff" stroke="#2563eb" stroke-width="2"/>
<text x="720.3" y="246.5" class="small">Logged yield trajectory</text>
<polyline points="100.3,230.0 246.0,230.0 415.0,223.7 595.7,230.0 799.7,230.0" fill="none" stroke="#64748b" stroke-width="2" stroke-linecap="round" stroke-linejoin="round" stroke-dasharray="4 6"/>
<circle cx="100.3" cy="230.0" r="4" fill="#64748b"/>
<circle cx="799.7" cy="230.0" r="5" fill="#ffffff" stroke="#64748b" stroke-width="2"/>
<text x="807.7" y="234.0" class="small">Fast log-like path</text>
<polyline points="100.3,230.0 205.2,230.0 286.8,230.0 450.0,280.1 712.3,242.5" fill="none" stroke="#0f766e" stroke-width="5" stroke-linecap="round" stroke-linejoin="round"/>
<circle cx="100.3" cy="230.0" r="4" fill="#0f766e"/>
<circle cx="712.3" cy="242.5" r="5" fill="#ffffff" stroke="#0f766e" stroke-width="2"/>
<text x="720.3" y="246.5" class="small">Yield, then continue</text>
<polyline points="100.3,230.0 158.6,230.0 193.5,230.0 216.9,230.0 228.5,230.0" fill="none" stroke="#64748b" stroke-width="2" stroke-linecap="round" stroke-linejoin="round" stroke-dasharray="4 6"/>
<circle cx="100.3" cy="230.0" r="4" fill="#64748b"/>
<circle cx="228.5" cy="230.0" r="5" fill="#ffffff" stroke="#64748b" stroke-width="2"/>
<text x="236.5" y="234.0" class="small">Overly cautious stop</text>
<polyline points="100.3,230.0 219.5,230.0 331.7,227.8 501.0,262.6 742.9,238.1" fill="none" stroke="#64748b" stroke-width="2" stroke-linecap="round" stroke-linejoin="round" stroke-dasharray="4 6"/>
<circle cx="100.3" cy="230.0" r="4" fill="#64748b"/>
<circle cx="742.9" cy="238.1" r="5" fill="#ffffff" stroke="#64748b" stroke-width="2"/>
<text x="750.9" y="242.1" class="small">Generated progress pressure</text>
<polyline points="100.3,230.0 165.3,230.0 215.9,230.0 317.1,261.1 479.7,237.8" fill="none" stroke="#64748b" stroke-width="2" stroke-linecap="round" stroke-linejoin="round" stroke-dasharray="4 6"/>
<circle cx="100.3" cy="230.0" r="4" fill="#64748b"/>
<circle cx="479.7" cy="237.8" r="5" fill="#ffffff" stroke="#64748b" stroke-width="2"/>
<text x="487.7" y="241.8" class="small">Generated under-committed progress</text>
<polyline points="100.3,230.0 205.2,183.0 286.8,277.0 450.0,233.1 712.3,289.5" fill="none" stroke="#64748b" stroke-width="2" stroke-linecap="round" stroke-linejoin="round" stroke-dasharray="4 6"/>
<circle cx="100.3" cy="230.0" r="4" fill="#64748b"/>
<circle cx="712.3" cy="289.5" r="5" fill="#ffffff" stroke="#64748b" stroke-width="2"/>
<text x="720.3" y="293.5" class="small">Generated lateral wobble</text>
<polyline points="426.7,367.9 426.7,298.9 426.7,217.5 426.7,154.8 426.7,98.4" fill="none" stroke="#c026d3" stroke-width="2" stroke-dasharray="3 5" opacity="0.7"/>
<circle cx="426.7" cy="367.9" r="6" fill="#c026d3" opacity="0.75"/>
<circle cx="426.7" cy="298.9" r="6" fill="#c026d3" opacity="0.75"/>
<circle cx="426.7" cy="217.5" r="6" fill="#c026d3" opacity="0.75"/>
<circle cx="426.7" cy="154.8" r="6" fill="#c026d3" opacity="0.75"/>
<circle cx="426.7" cy="98.4" r="8" fill="#c026d3" opacity="0.75"/>
<text x="436.7" y="102.4" class="small">pedestrian</text>
<circle cx="799.7" cy="230.0" r="7" fill="#facc15" stroke="#854d0e" stroke-width="2"/>
<text x="809.7" y="220.0" class="small">goal</text>
<circle cx="42" cy="438" r="5" fill="#0f766e"/><text x="52" y="442" class="small">metric top candidate</text>
<circle cx="220" cy="438" r="5" fill="#2563eb"/><text x="230" y="442" class="small">logged reference</text>
<circle cx="370" cy="438" r="5" fill="#dc2626"/><text x="380" y="442" class="small">vehicle/obstacle</text>
<circle cx="535" cy="438" r="5" fill="#c026d3"/><text x="545" y="442" class="small">VRU</text>
</svg>
