<svg xmlns="http://www.w3.org/2000/svg" width="900" height="460" viewBox="0 0 900 460" role="img" aria-label="Unprotected left turn with oncoming vehicle">
<style>
text{font-family:Arial,Helvetica,sans-serif;fill:#0f172a}
.small{font-size:13px}.label{font-size:14px;font-weight:700}
.road{fill:#f8fafc;stroke:#94a3b8;stroke-width:2}
.grid{stroke:#e2e8f0;stroke-width:1}
</style>
<rect width="100%" height="100%" fill="#ffffff"/>
<rect class="road" x="42.0" y="42.0" width="816.0" height="376.0" rx="4"/>
<text x="42" y="26" class="label">Unprotected left turn with oncoming vehicle</text>
<text x="42" y="44" class="small">unprotected_left_turn</text>
<line class="grid" x1="42.0" y1="418.0" x2="42.0" y2="42.0"/>
<line class="grid" x1="178.0" y1="418.0" x2="178.0" y2="42.0"/>
<line class="grid" x1="314.0" y1="418.0" x2="314.0" y2="42.0"/>
<line class="grid" x1="450.0" y1="418.0" x2="450.0" y2="42.0"/>
<line class="grid" x1="586.0" y1="418.0" x2="586.0" y2="42.0"/>
<line class="grid" x1="722.0" y1="418.0" x2="722.0" y2="42.0"/>
<line class="grid" x1="858.0" y1="418.0" x2="858.0" y2="42.0"/>
<line class="grid" x1="42.0" y1="418.0" x2="858.0" y2="418.0"/>
<line class="grid" x1="42.0" y1="349.6" x2="858.0" y2="349.6"/>
<line class="grid" x1="42.0" y1="281.3" x2="858.0" y2="281.3"/>
<line class="grid" x1="42.0" y1="212.9" x2="858.0" y2="212.9"/>
<line class="grid" x1="42.0" y1="144.5" x2="858.0" y2="144.5"/>
<line class="grid" x1="42.0" y1="76.2" x2="858.0" y2="76.2"/>
<polyline points="110.0,315.5 259.6,298.4 348.0,281.3 558.8,165.1 722.0,76.2" fill="none" stroke="#2563eb" stroke-width="3" stroke-linecap="round" stroke-linejoin="round" stroke-dasharray="6 5"/>
<circle cx="110.0" cy="315.5" r="4" fill="#2563eb"/>
<circle cx="722.0" cy="76.2" r="5" fill="#ffffff" stroke="#2563eb" stroke-width="2"/>
<text x="730.0" y="80.2" class="small">Logged gap-acceptance turn</text>
<polyline points="110.0,315.5 300.4,288.1 470.4,226.6 620.0,137.7 735.6,76.2" fill="none" stroke="#64748b" stroke-width="2" stroke-linecap="round" stroke-linejoin="round" stroke-dasharray="4 6"/>
<circle cx="110.0" cy="315.5" r="4" fill="#64748b"/>
<circle cx="735.6" cy="76.2" r="5" fill="#ffffff" stroke="#64748b" stroke-width="2"/>
<text x="743.6" y="80.2" class="small">Aggressive early turn</text>
<polyline points="110.0,315.5 232.4,305.2 327.6,288.1 538.4,175.3 722.0,76.2" fill="none" stroke="#0f766e" stroke-width="5" stroke-linecap="round" stroke-linejoin="round"/>
<circle cx="110.0" cy="315.5" r="4" fill="#0f766e"/>
<circle cx="722.0" cy="76.2" r="5" fill="#ffffff" stroke="#0f766e" stroke-width="2"/>
<text x="730.0" y="80.2" class="small">Wait for gap, then turn</text>
<polyline points="110.0,315.5 164.4,312.0 191.6,308.6 191.6,308.6 191.6,308.6" fill="none" stroke="#64748b" stroke-width="2" stroke-linecap="round" stroke-linejoin="round" stroke-dasharray="4 6"/>
<circle cx="110.0" cy="315.5" r="4" fill="#64748b"/>
<circle cx="191.6" cy="308.6" r="5" fill="#ffffff" stroke="#64748b" stroke-width="2"/>
<text x="199.6" y="312.6" class="small">Hold position</text>
<polyline points="110.0,315.5 256.2,299.2 377.6,266.6 567.0,162.1 726.8,76.2" fill="none" stroke="#64748b" stroke-width="2" stroke-linecap="round" stroke-linejoin="round" stroke-dasharray="4 6"/>
<circle cx="110.0" cy="315.5" r="4" fill="#64748b"/>
<circle cx="726.8" cy="76.2" r="5" fill="#ffffff" stroke="#64748b" stroke-width="2"/>
<text x="734.8" y="80.2" class="small">Generated progress pressure</text>
<polyline points="110.0,315.5 185.9,309.1 244.9,298.5 375.6,228.6 489.4,167.1" fill="none" stroke="#64748b" stroke-width="2" stroke-linecap="round" stroke-linejoin="round" stroke-dasharray="4 6"/>
<circle cx="110.0" cy="315.5" r="4" fill="#64748b"/>
<circle cx="489.4" cy="167.1" r="5" fill="#ffffff" stroke="#64748b" stroke-width="2"/>
<text x="497.4" y="171.1" class="small">Generated under-committed progress</text>
<polyline points="110.0,315.5 201.1,285.0 358.9,308.3 507.1,155.1 753.3,96.4" fill="none" stroke="#64748b" stroke-width="2" stroke-linecap="round" stroke-linejoin="round" stroke-dasharray="4 6"/>
<circle cx="110.0" cy="315.5" r="4" fill="#64748b"/>
<circle cx="753.3" cy="96.4" r="5" fill="#ffffff" stroke="#64748b" stroke-width="2"/>
<text x="761.3" y="100.4" class="small">Generated lateral wobble</text>
<polyline points="790.0,223.2 654.0,223.2 504.4,223.2 354.8,223.2 205.2,223.2" fill="none" stroke="#dc2626" stroke-width="2" stroke-dasharray="3 5" opacity="0.7"/>
<circle cx="790.0" cy="223.2" r="6" fill="#dc2626" opacity="0.75"/>
<circle cx="654.0" cy="223.2" r="6" fill="#dc2626" opacity="0.75"/>
<circle cx="504.4" cy="223.2" r="6" fill="#dc2626" opacity="0.75"/>
<circle cx="354.8" cy="223.2" r="6" fill="#dc2626" opacity="0.75"/>
<circle cx="205.2" cy="223.2" r="8" fill="#dc2626" opacity="0.75"/>
<text x="215.2" y="227.2" class="small">vehicle</text>
<circle cx="722.0" cy="76.2" r="7" fill="#facc15" stroke="#854d0e" stroke-width="2"/>
<text x="732.0" y="66.2" class="small">goal</text>
<circle cx="42" cy="438" r="5" fill="#0f766e"/><text x="52" y="442" class="small">metric top candidate</text>
<circle cx="220" cy="438" r="5" fill="#2563eb"/><text x="230" y="442" class="small">logged reference</text>
<circle cx="370" cy="438" r="5" fill="#dc2626"/><text x="380" y="442" class="small">vehicle/obstacle</text>
<circle cx="535" cy="438" r="5" fill="#c026d3"/><text x="545" y="442" class="small">VRU</text>
</svg>
