<svg xmlns="http://www.w3.org/2000/svg" width="900" height="460" viewBox="0 0 900 460" role="img" aria-label="Lead vehicle hard braking">
<style>
text{font-family:Arial,Helvetica,sans-serif;fill:#0f172a}
.small{font-size:13px}.label{font-size:14px;font-weight:700}
.road{fill:#f8fafc;stroke:#94a3b8;stroke-width:2}
.grid{stroke:#e2e8f0;stroke-width:1}
</style>
<rect width="100%" height="100%" fill="#ffffff"/>
<rect class="road" x="42.0" y="42.0" width="816.0" height="376.0" rx="4"/>
<text x="42" y="26" class="label">Lead vehicle hard braking</text>
<text x="42" y="44" class="small">hard_braking_lead_vehicle</text>
<line class="grid" x1="42.0" y1="418.0" x2="42.0" y2="42.0"/>
<line class="grid" x1="158.6" y1="418.0" x2="158.6" y2="42.0"/>
<line class="grid" x1="275.1" y1="418.0" x2="275.1" y2="42.0"/>
<line class="grid" x1="391.7" y1="418.0" x2="391.7" y2="42.0"/>
<line class="grid" x1="508.3" y1="418.0" x2="508.3" y2="42.0"/>
<line class="grid" x1="624.9" y1="418.0" x2="624.9" y2="42.0"/>
<line class="grid" x1="741.4" y1="418.0" x2="741.4" y2="42.0"/>
<line class="grid" x1="858.0" y1="418.0" x2="858.0" y2="42.0"/>
<line class="grid" x1="42.0" y1="418.0" x2="858.0" y2="418.0"/>
<line class="grid" x1="42.0" y1="292.7" x2="858.0" y2="292.7"/>
<line class="grid" x1="42.0" y1="167.3" x2="858.0" y2="167.3"/>
<line class="grid" x1="42.0" y1="42.0" x2="858.0" y2="42.0"/>
<polyline points="100.3,230.0 216.9,230.0 333.4,230.0 403.4,230.0 438.3,230.0" fill="none" stroke="#2563eb" stroke-width="3" stroke-linecap="round" stroke-linejoin="round" stroke-dasharray="6 5"/>
<circle cx="100.3" cy="230.0" r="4" fill="#2563eb"/>
<circle cx="438.3" cy="230.0" r="5" fill="#ffffff" stroke="#2563eb" stroke-width="2"/>
<text x="446.3" y="234.0" class="small">Logged smooth braking</text>
<polyline points="100.3,230.0 275.1,230.0 450.0,230.0 624.9,230.0 799.7,230.0" fill="none" stroke="#64748b" stroke-width="2" stroke-linecap="round" stroke-linejoin="round" stroke-dasharray="4 6"/>
<circle cx="100.3" cy="230.0" r="4" fill="#64748b"/>
<circle cx="799.7" cy="230.0" r="5" fill="#ffffff" stroke="#64748b" stroke-width="2"/>
<text x="807.7" y="234.0" class="small">Maintain speed</text>
<polyline points="100.3,230.0 216.9,230.0 333.4,230.0 403.4,230.0 438.3,230.0" fill="none" stroke="#0f766e" stroke-width="5" stroke-linecap="round" stroke-linejoin="round"/>
<circle cx="100.3" cy="230.0" r="4" fill="#0f766e"/>
<circle cx="438.3" cy="230.0" r="5" fill="#ffffff" stroke="#0f766e" stroke-width="2"/>
<text x="446.3" y="234.0" class="small">Smooth brake</text>
<polyline points="100.3,230.0 187.7,230.0 216.9,230.0 222.7,230.0 222.7,230.0" fill="none" stroke="#64748b" stroke-width="2" stroke-linecap="round" stroke-linejoin="round" stroke-dasharray="4 6"/>
<circle cx="100.3" cy="230.0" r="4" fill="#64748b"/>
<circle cx="222.7" cy="230.0" r="5" fill="#ffffff" stroke="#64748b" stroke-width="2"/>
<text x="230.7" y="234.0" class="small">Abrupt stop</text>
<polyline points="100.3,230.0 237.3,230.0 374.2,230.0 480.9,230.0 564.8,230.0" fill="none" stroke="#64748b" stroke-width="2" stroke-linecap="round" stroke-linejoin="round" stroke-dasharray="4 6"/>
<circle cx="100.3" cy="230.0" r="4" fill="#64748b"/>
<circle cx="564.8" cy="230.0" r="5" fill="#ffffff" stroke="#64748b" stroke-width="2"/>
<text x="572.8" y="234.0" class="small">Generated progress pressure</text>
<polyline points="100.3,230.0 172.6,230.0 244.8,230.0 288.2,230.0 309.9,230.0" fill="none" stroke="#64748b" stroke-width="2" stroke-linecap="round" stroke-linejoin="round" stroke-dasharray="4 6"/>
<circle cx="100.3" cy="230.0" r="4" fill="#64748b"/>
<circle cx="309.9" cy="230.0" r="5" fill="#ffffff" stroke="#64748b" stroke-width="2"/>
<text x="317.9" y="234.0" class="small">Generated under-committed progress</text>
<polyline points="100.3,230.0 216.9,183.0 333.4,277.0 403.4,183.0 438.3,277.0" fill="none" stroke="#64748b" stroke-width="2" stroke-linecap="round" stroke-linejoin="round" stroke-dasharray="4 6"/>
<circle cx="100.3" cy="230.0" r="4" fill="#64748b"/>
<circle cx="438.3" cy="277.0" r="5" fill="#ffffff" stroke="#64748b" stroke-width="2"/>
<text x="446.3" y="281.0" class="small">Generated lateral wobble</text>
<polyline points="420.9,230.0 508.3,230.0 566.6,230.0 595.7,230.0 613.2,230.0" fill="none" stroke="#dc2626" stroke-width="2" stroke-dasharray="3 5" opacity="0.7"/>
<circle cx="420.9" cy="230.0" r="6" fill="#dc2626" opacity="0.75"/>
<circle cx="508.3" cy="230.0" r="6" fill="#dc2626" opacity="0.75"/>
<circle cx="566.6" cy="230.0" r="6" fill="#dc2626" opacity="0.75"/>
<circle cx="595.7" cy="230.0" r="6" fill="#dc2626" opacity="0.75"/>
<circle cx="613.2" cy="230.0" r="8" fill="#dc2626" opacity="0.75"/>
<text x="623.2" y="234.0" class="small">vehicle</text>
<circle cx="566.6" cy="230.0" r="7" fill="#facc15" stroke="#854d0e" stroke-width="2"/>
<text x="576.6" y="220.0" class="small">goal</text>
<circle cx="42" cy="438" r="5" fill="#0f766e"/><text x="52" y="442" class="small">metric top candidate</text>
<circle cx="220" cy="438" r="5" fill="#2563eb"/><text x="230" y="442" class="small">logged reference</text>
<circle cx="370" cy="438" r="5" fill="#dc2626"/><text x="380" y="442" class="small">vehicle/obstacle</text>
<circle cx="535" cy="438" r="5" fill="#c026d3"/><text x="545" y="442" class="small">VRU</text>
</svg>
