<svg xmlns="http://www.w3.org/2000/svg" width="900" height="460" viewBox="0 0 900 460" role="img" aria-label="Cyclist close pass on urban lane">
<style>
text{font-family:Arial,Helvetica,sans-serif;fill:#0f172a}
.small{font-size:13px}.label{font-size:14px;font-weight:700}
.road{fill:#f8fafc;stroke:#94a3b8;stroke-width:2}
.grid{stroke:#e2e8f0;stroke-width:1}
</style>
<rect width="100%" height="100%" fill="#ffffff"/>
<rect class="road" x="42.0" y="42.0" width="816.0" height="376.0" rx="4"/>
<text x="42" y="26" class="label">Cyclist close pass on urban lane</text>
<text x="42" y="44" class="small">cyclist_close_pass</text>
<line class="grid" x1="42.0" y1="418.0" x2="42.0" y2="42.0"/>
<line class="grid" x1="158.6" y1="418.0" x2="158.6" y2="42.0"/>
<line class="grid" x1="275.1" y1="418.0" x2="275.1" y2="42.0"/>
<line class="grid" x1="391.7" y1="418.0" x2="391.7" y2="42.0"/>
<line class="grid" x1="508.3" y1="418.0" x2="508.3" y2="42.0"/>
<line class="grid" x1="624.9" y1="418.0" x2="624.9" y2="42.0"/>
<line class="grid" x1="741.4" y1="418.0" x2="741.4" y2="42.0"/>
<line class="grid" x1="858.0" y1="418.0" x2="858.0" y2="42.0"/>
<line class="grid" x1="42.0" y1="418.0" x2="858.0" y2="418.0"/>
<line class="grid" x1="42.0" y1="292.7" x2="858.0" y2="292.7"/>
<line class="grid" x1="42.0" y1="167.3" x2="858.0" y2="167.3"/>
<line class="grid" x1="42.0" y1="42.0" x2="858.0" y2="42.0"/>
<polyline points="100.3,230.0 216.9,255.1 350.9,298.9 554.9,305.2 799.7,255.1" fill="none" stroke="#2563eb" stroke-width="3" stroke-linecap="round" stroke-linejoin="round" stroke-dasharray="6 5"/>
<circle cx="100.3" cy="230.0" r="4" fill="#2563eb"/>
<circle cx="799.7" cy="255.1" r="5" fill="#ffffff" stroke="#2563eb" stroke-width="2"/>
<text x="807.7" y="259.1" class="small">Logged wide pass</text>
<polyline points="100.3,230.0 240.2,230.0 380.1,230.0 578.2,230.0 799.7,230.0" fill="none" stroke="#64748b" stroke-width="2" stroke-linecap="round" stroke-linejoin="round" stroke-dasharray="4 6"/>
<circle cx="100.3" cy="230.0" r="4" fill="#64748b"/>
<circle cx="799.7" cy="230.0" r="5" fill="#ffffff" stroke="#64748b" stroke-width="2"/>
<text x="807.7" y="234.0" class="small">Close pass</text>
<polyline points="100.3,230.0 216.9,255.1 350.9,298.9 554.9,305.2 799.7,255.1" fill="none" stroke="#0f766e" stroke-width="5" stroke-linecap="round" stroke-linejoin="round"/>
<circle cx="100.3" cy="230.0" r="4" fill="#0f766e"/>
<circle cx="799.7" cy="255.1" r="5" fill="#ffffff" stroke="#0f766e" stroke-width="2"/>
<text x="807.7" y="259.1" class="small">Wide pass</text>
<polyline points="100.3,230.0 205.2,230.0 286.8,230.0 333.4,230.0 356.7,230.0" fill="none" stroke="#64748b" stroke-width="2" stroke-linecap="round" stroke-linejoin="round" stroke-dasharray="4 6"/>
<circle cx="100.3" cy="230.0" r="4" fill="#64748b"/>
<circle cx="356.7" cy="230.0" r="5" fill="#ffffff" stroke="#64748b" stroke-width="2"/>
<text x="364.7" y="234.0" class="small">Follow cyclist</text>
<polyline points="100.3,230.0 225.0,246.3 361.1,274.8 563.1,278.9 799.7,246.3" fill="none" stroke="#64748b" stroke-width="2" stroke-linecap="round" stroke-linejoin="round" stroke-dasharray="4 6"/>
<circle cx="100.3" cy="230.0" r="4" fill="#64748b"/>
<circle cx="799.7" cy="246.3" r="5" fill="#ffffff" stroke="#64748b" stroke-width="2"/>
<text x="807.7" y="250.3" class="small">Generated progress pressure</text>
<polyline points="100.3,230.0 172.6,245.5 255.7,272.7 382.2,276.6 533.9,245.5" fill="none" stroke="#64748b" stroke-width="2" stroke-linecap="round" stroke-linejoin="round" stroke-dasharray="4 6"/>
<circle cx="100.3" cy="230.0" r="4" fill="#64748b"/>
<circle cx="533.9" cy="245.5" r="5" fill="#ffffff" stroke="#64748b" stroke-width="2"/>
<text x="541.9" y="249.5" class="small">Generated under-committed progress</text>
<polyline points="100.3,230.0 216.9,208.1 350.9,345.9 554.9,258.2 799.7,302.1" fill="none" stroke="#64748b" stroke-width="2" stroke-linecap="round" stroke-linejoin="round" stroke-dasharray="4 6"/>
<circle cx="100.3" cy="230.0" r="4" fill="#64748b"/>
<circle cx="799.7" cy="302.1" r="5" fill="#ffffff" stroke="#64748b" stroke-width="2"/>
<text x="807.7" y="306.1" class="small">Generated lateral wobble</text>
<polyline points="228.5,161.1 345.1,161.1 461.7,161.1 578.2,161.1 694.8,161.1" fill="none" stroke="#c026d3" stroke-width="2" stroke-dasharray="3 5" opacity="0.7"/>
<circle cx="228.5" cy="161.1" r="6" fill="#c026d3" opacity="0.75"/>
<circle cx="345.1" cy="161.1" r="6" fill="#c026d3" opacity="0.75"/>
<circle cx="461.7" cy="161.1" r="6" fill="#c026d3" opacity="0.75"/>
<circle cx="578.2" cy="161.1" r="6" fill="#c026d3" opacity="0.75"/>
<circle cx="694.8" cy="161.1" r="8" fill="#c026d3" opacity="0.75"/>
<text x="704.8" y="165.1" class="small">cyclist</text>
<circle cx="799.7" cy="230.0" r="7" fill="#facc15" stroke="#854d0e" stroke-width="2"/>
<text x="809.7" y="220.0" class="small">goal</text>
<circle cx="42" cy="438" r="5" fill="#0f766e"/><text x="52" y="442" class="small">metric top candidate</text>
<circle cx="220" cy="438" r="5" fill="#2563eb"/><text x="230" y="442" class="small">logged reference</text>
<circle cx="370" cy="438" r="5" fill="#dc2626"/><text x="380" y="442" class="small">vehicle/obstacle</text>
<circle cx="535" cy="438" r="5" fill="#c026d3"/><text x="545" y="442" class="small">VRU</text>
</svg>
