<svg xmlns="http://www.w3.org/2000/svg" width="900" height="460" viewBox="0 0 900 460" role="img" aria-label="Dense merge with adjacent-lane gap planner comparison">
<style>
text{font-family:Arial,Helvetica,sans-serif;fill:#0f172a}
.small{font-size:13px}.label{font-size:14px;font-weight:700}
.road{fill:#f8fafc;stroke:#94a3b8;stroke-width:2}
.grid{stroke:#e2e8f0;stroke-width:1}
</style>
<rect width="100%" height="100%" fill="#ffffff"/>
<rect class="road" x="42.0" y="42.0" width="816.0" height="376.0" rx="4"/>
<text x="42" y="26" class="label">Dense merge with adjacent-lane gap</text>
<text x="42" y="44" class="small">planner benchmark</text>
<line class="grid" x1="42.0" y1="418.0" x2="42.0" y2="42.0"/>
<line class="grid" x1="158.6" y1="418.0" x2="158.6" y2="42.0"/>
<line class="grid" x1="275.1" y1="418.0" x2="275.1" y2="42.0"/>
<line class="grid" x1="391.7" y1="418.0" x2="391.7" y2="42.0"/>
<line class="grid" x1="508.3" y1="418.0" x2="508.3" y2="42.0"/>
<line class="grid" x1="624.9" y1="418.0" x2="624.9" y2="42.0"/>
<line class="grid" x1="741.4" y1="418.0" x2="741.4" y2="42.0"/>
<line class="grid" x1="858.0" y1="418.0" x2="858.0" y2="42.0"/>
<line class="grid" x1="42.0" y1="418.0" x2="858.0" y2="418.0"/>
<line class="grid" x1="42.0" y1="292.7" x2="858.0" y2="292.7"/>
<line class="grid" x1="42.0" y1="167.3" x2="858.0" y2="167.3"/>
<line class="grid" x1="42.0" y1="42.0" x2="858.0" y2="42.0"/>
<polyline points="100.3,317.7 216.9,311.5 345.1,292.7 450.0,273.9 729.8,230.0" fill="none" stroke="#2563eb" stroke-width="3" stroke-linecap="round" stroke-linejoin="round" stroke-dasharray="5 5"/>
<circle cx="100.3" cy="317.7" r="4" fill="#2563eb"/>
<circle cx="729.8" cy="230.0" r="5" fill="#ffffff" stroke="#2563eb" stroke-width="2"/>
<text x="737.8" y="234.0" class="small">Logged merge into gap</text>
<polyline points="100.3,317.7 246.0,292.7 380.1,242.5 554.9,230.0 799.7,230.0" fill="none" stroke="#dc2626" stroke-width="3" stroke-linecap="round" stroke-linejoin="round" stroke-dasharray="5 5"/>
<circle cx="100.3" cy="317.7" r="4" fill="#dc2626"/>
<circle cx="799.7" cy="230.0" r="5" fill="#ffffff" stroke="#dc2626" stroke-width="2"/>
<text x="807.7" y="234.0" class="small">Force merge</text>
<polyline points="100.3,317.7 216.9,311.5 345.1,292.7 450.0,273.9 729.8,230.0" fill="none" stroke="#0f766e" stroke-width="5" stroke-linecap="round" stroke-linejoin="round"/>
<circle cx="100.3" cy="317.7" r="4" fill="#0f766e"/>
<circle cx="729.8" cy="230.0" r="5" fill="#ffffff" stroke="#0f766e" stroke-width="2"/>
<text x="737.8" y="234.0" class="small">Merge into gap</text>
<polyline points="391.7,204.9 479.1,204.9 566.6,204.9 712.3,204.9 869.7,204.9" fill="none" stroke="#334155" stroke-width="2" stroke-dasharray="3 5" opacity="0.7"/>
<circle cx="391.7" cy="204.9" r="6" fill="#334155" opacity="0.75"/>
<circle cx="479.1" cy="204.9" r="6" fill="#334155" opacity="0.75"/>
<circle cx="566.6" cy="204.9" r="6" fill="#334155" opacity="0.75"/>
<circle cx="712.3" cy="204.9" r="6" fill="#334155" opacity="0.75"/>
<circle cx="869.7" cy="204.9" r="8" fill="#334155" opacity="0.75"/>
<text x="879.7" y="208.9" class="small">vehicle</text>
<polyline points="-16.3,204.9 100.3,204.9 216.9,204.9 333.4,204.9 450.0,204.9" fill="none" stroke="#334155" stroke-width="2" stroke-dasharray="3 5" opacity="0.7"/>
<circle cx="-16.3" cy="204.9" r="6" fill="#334155" opacity="0.75"/>
<circle cx="100.3" cy="204.9" r="6" fill="#334155" opacity="0.75"/>
<circle cx="216.9" cy="204.9" r="6" fill="#334155" opacity="0.75"/>
<circle cx="333.4" cy="204.9" r="6" fill="#334155" opacity="0.75"/>
<circle cx="450.0" cy="204.9" r="8" fill="#334155" opacity="0.75"/>
<text x="460.0" y="208.9" class="small">vehicle</text>
<circle cx="799.7" cy="230.0" r="7" fill="#facc15" stroke="#854d0e" stroke-width="2"/>
<text x="809.7" y="220.0" class="small">goal</text>
<circle cx="42" cy="438" r="5" fill="#2563eb"/><text x="52" y="442" class="small">reference imitation</text>
<circle cx="212" cy="438" r="5" fill="#dc2626"/><text x="222" y="442" class="small">progress only</text>
<circle cx="382" cy="438" r="5" fill="#0f766e"/><text x="392" y="442" class="small">metric rerank</text>
<circle cx="552" cy="438" r="5" fill="#c026d3"/><text x="562" y="442" class="small">VRU</text>
</svg>
